<?xml version="1.0" encoding="UTF-8"?>
<svg version="1.1" xmlns="http://www.w3.org/2000/svg" width="512" height="512">
<path d="M0 0 C0.77665896 -0.00297112 1.55331791 -0.00594224 2.35351199 -0.0090034 C4.92812469 -0.01760113 7.50269042 -0.01919093 10.07731628 -0.02069092 C11.93420001 -0.02532501 13.79108278 -0.03035046 15.64796448 -0.03573608 C20.67026686 -0.04879524 25.69255591 -0.05529097 30.7148726 -0.05974674 C33.85324865 -0.06268476 36.99162111 -0.06679067 40.12999535 -0.07125092 C49.95225882 -0.08490161 59.77451402 -0.09458314 69.59678632 -0.09845281 C80.93228006 -0.10294379 92.26765384 -0.12054994 103.60311109 -0.1494534 C112.37271174 -0.17103915 121.14227852 -0.18115523 129.91190547 -0.18249393 C135.14784824 -0.18354312 140.38367786 -0.18947674 145.61959267 -0.20731354 C150.53705283 -0.22374301 155.45431408 -0.2259748 160.37179184 -0.21717453 C162.17780145 -0.21640171 163.98382156 -0.22077898 165.78980446 -0.23063278 C168.25138515 -0.24327878 170.71225311 -0.23751628 173.17382812 -0.22705078 C173.89142691 -0.23510719 174.60902569 -0.24316359 175.3483699 -0.25146413 C178.38518984 -0.22117825 180.49542973 -0.00836181 183.18558788 1.45247269 C185.71642778 4.14965598 185.70716171 6.52743369 185.76945496 10.14044189 C183.47319311 14.77297015 180.04879597 18.61747755 176.76945496 22.57794189 C175.59143244 24.01336956 174.41436451 25.44958111 173.23820496 26.88653564 C172.65168152 27.60309326 172.06515808 28.31965088 171.46086121 29.05792236 C169.0257594 32.05610632 166.64501149 35.09502598 164.26945496 38.14044189 C162.92509045 39.85282929 161.57937139 41.56414421 160.23332214 43.27520752 C159.18959086 44.60511195 158.14890306 45.93740731 157.11027527 47.27130127 C155.3818658 49.48591689 153.63947929 51.68890497 151.89445496 53.89044189 C151.35884949 54.58266846 150.82324402 55.27489502 150.27140808 55.98809814 C149.75771667 56.63134033 149.24402527 57.27458252 148.71476746 57.93731689 C148.04211853 58.79341553 148.04211853 58.79341553 147.35588074 59.66680908 C143.6825018 63.07901519 139.53060166 63.39046619 134.70188904 63.39199829 C132.87310966 63.40007256 132.87310966 63.40007256 131.00738525 63.40830994 C129.6640773 63.40429587 128.3207698 63.40012496 126.97746277 63.39581299 C125.55604858 63.39856463 124.13463593 63.40224558 122.71322632 63.40678406 C119.65433424 63.41488822 116.59551523 63.41706632 113.53661346 63.41483688 C108.68397097 63.41199499 103.8314731 63.42639241 98.97886658 63.44381714 C85.18008124 63.49074798 71.38130485 63.5147496 57.58244324 63.52130127 C49.95936854 63.52507341 42.33645693 63.54328022 34.7134521 63.57639563 C30.68815983 63.59317272 26.66316394 63.60251646 22.63784027 63.59345627 C-0.61168489 63.32327265 -0.61168489 63.32327265 -23.23054504 68.14044189 C-24.07141663 68.41533951 -24.91228821 68.69023712 -25.77864075 68.97346497 C-35.5542253 72.47741178 -44.0479538 77.83396964 -52.23054504 84.14044189 C-53.35202942 85.00282471 -53.35202942 85.00282471 -54.49617004 85.88262939 C-59.68446819 90.15174086 -63.76009063 95.2189368 -67.9087677 100.47735596 C-69.89375922 102.97491086 -71.91761417 105.4403233 -73.93684387 107.91021729 C-79.0503115 114.16981986 -84.09151887 120.48022647 -89.06599426 126.85064697 C-93.10863819 132.01527424 -97.24789082 137.0983163 -101.39460754 142.17950439 C-104.885851 146.46496437 -108.32846673 150.78393999 -111.73054504 155.14044189 C-115.76689796 160.30394413 -119.8533949 165.42418187 -123.98054504 170.51544189 C-124.4993927 171.15739502 -125.01824036 171.79934814 -125.55281067 172.46075439 C-126.54929603 173.68641873 -127.55923626 174.90131285 -128.58465576 176.10287476 C-130.25708279 178.08925842 -130.25708279 178.08925842 -131.53414917 180.22805786 C-134.07096584 183.90577262 -135.97917422 185.85467278 -140.41734314 186.86819458 C-144.44438234 187.13405614 -148.39821038 187.14807106 -152.42976379 187.06231689 C-153.91232664 187.0575419 -155.39490174 187.0557387 -156.87747192 187.0567627 C-159.97388756 187.05052788 -163.06843678 187.01756748 -166.16438293 186.96368408 C-170.12928162 186.89554185 -174.0921432 186.88043272 -178.05755901 186.88346481 C-181.1143736 186.88237665 -184.17074442 186.86043429 -187.22741127 186.83145905 C-188.68939168 186.81875197 -190.1514222 186.810852 -191.61345482 186.80788422 C-193.65486678 186.79919761 -195.69608866 186.76100099 -197.73713684 186.72149658 C-198.89738876 186.70624939 -200.05764069 186.6910022 -201.25305176 186.67529297 C-204.86736027 186.02604993 -206.06706713 185.06909254 -208.23054504 182.14044189 C-208.93203349 177.17450933 -208.8542693 175.19039855 -206.28132629 170.85919189 C-205.3880047 169.77003704 -204.47386352 168.69773027 -203.54304504 167.64044189 C-202.80634583 166.75485596 -202.80634583 166.75485596 -202.05476379 165.85137939 C-201.00326113 164.58851941 -199.94392829 163.33214476 -198.8775177 162.08184814 C-196.10536755 158.81411349 -193.42570742 155.47167707 -190.73054504 152.14044189 C-189.62643387 150.78622998 -188.52226752 149.43206305 -187.41804504 148.07794189 C-184.48132524 144.46351752 -181.59660823 140.81101405 -178.73054504 137.14044189 C-174.24854394 131.40033522 -169.67097947 125.74350943 -165.06648254 120.10137939 C-161.57524422 115.81592571 -158.13235616 111.49714736 -154.73054504 107.14044189 C-150.24854394 101.40033522 -145.67097947 95.74350943 -141.06648254 90.10137939 C-137.57523591 85.81591552 -134.13279405 81.49681338 -130.73054504 77.14044189 C-100.20388092 38.1173575 -66.16517017 7.70261001 -15.18951684 0.86673856 C-10.10527206 0.26894685 -5.11683157 -0.00627599 0 0 Z " fill="#F02D0D" transform="translate(208.2305450439453,162.85955810546875)"/>
<path d="M0 0 C1.48256284 0.00477499 2.96513795 0.0065782 4.44770813 0.0055542 C7.54412376 0.01178902 10.63867298 0.04474941 13.73461914 0.09863281 C17.69951783 0.16677505 21.66237941 0.18188417 25.62779522 0.17885208 C28.68460981 0.17994025 31.74098062 0.2018826 34.79764748 0.23085785 C36.25962789 0.24356492 37.7216584 0.2514649 39.18369102 0.25443268 C41.22510299 0.26311928 43.26632487 0.3013159 45.30737305 0.34082031 C46.46762497 0.3560675 47.62787689 0.3713147 48.82328796 0.38702393 C52.43759648 1.03626696 53.63730334 1.99322435 55.80078125 4.921875 C56.50226969 9.88780756 56.4245055 11.87191834 53.8515625 16.203125 C52.95824091 17.29227985 52.04409973 18.36458662 51.11328125 19.421875 C50.62214844 20.01226562 50.13101563 20.60265625 49.625 21.2109375 C48.57349734 22.47379748 47.5141645 23.73017213 46.44775391 24.98046875 C43.67560375 28.24820341 40.99594362 31.59063982 38.30078125 34.921875 C37.19667008 36.27608691 36.09250372 37.63025384 34.98828125 38.984375 C32.05156145 42.59879937 29.16684444 46.25130285 26.30078125 49.921875 C21.81878015 55.66198168 17.24121568 61.31880746 12.63671875 66.9609375 C9.14548042 71.24639118 5.70259237 75.56516953 2.30078125 79.921875 C-2.18121985 85.66198168 -6.75878432 91.31880746 -11.36328125 96.9609375 C-14.85451958 101.24639118 -18.29740763 105.56516953 -21.69921875 109.921875 C-26.18121985 115.66198168 -30.75878432 121.31880746 -35.36328125 126.9609375 C-38.85451958 131.24639118 -42.29740763 135.56516953 -45.69921875 139.921875 C-49.64116995 144.97033882 -53.64956444 149.95941314 -57.69921875 154.921875 C-61.86900992 160.0332916 -66.00269551 165.16926252 -70.07421875 170.359375 C-70.524021 170.93260498 -70.97382324 171.50583496 -71.43725586 172.09643555 C-73.42805426 174.639637 -75.40567631 177.1919438 -77.3671875 179.7578125 C-77.99238281 180.57507813 -78.61757813 181.39234375 -79.26171875 182.234375 C-79.78894531 182.93175781 -80.31617188 183.62914062 -80.859375 184.34765625 C-82.19921875 185.921875 -82.19921875 185.921875 -84.19921875 186.921875 C-86.3017075 187.03410066 -88.40777586 187.08121883 -90.51318359 187.09887695 C-91.1605397 187.10544815 -91.80789581 187.11201935 -92.47486877 187.11878967 C-94.61996575 187.1385217 -96.76499275 187.15018429 -98.91015625 187.16015625 C-99.64251118 187.16423178 -100.3748661 187.1683073 -101.1294136 187.17250633 C-105.00489266 187.19336563 -108.88033632 187.20766851 -112.75585938 187.21704102 C-116.75988057 187.22811167 -120.76334695 187.26251873 -124.76717186 187.30221272 C-127.84525593 187.32834798 -130.9232071 187.33673 -134.00139236 187.34032249 C-135.47740048 187.3451957 -136.95340237 187.3568307 -138.42930222 187.37536049 C-140.49547161 187.3996907 -142.56019628 187.3987995 -144.62646484 187.3918457 C-145.80179779 187.39771194 -146.97713074 187.40357819 -148.18807983 187.40962219 C-151.84931308 186.81657209 -153.01805392 185.87890729 -155.19921875 182.921875 C-155.84234329 178.96481575 -156.086075 176.53173414 -154.14208984 173.00292969 C-152.64603158 171.00435866 -151.05632205 169.15281796 -149.38671875 167.296875 C-148.18111679 165.88902608 -146.97670877 164.48015395 -145.7734375 163.0703125 C-145.16806152 162.37260742 -144.56268555 161.67490234 -143.93896484 160.95605469 C-141.42730447 158.01932241 -139.06138457 154.9791058 -136.69921875 151.921875 C-132.22046698 146.17929674 -127.63958675 140.52486114 -123.03515625 134.8828125 C-119.54391792 130.59735882 -116.10102987 126.27858047 -112.69921875 121.921875 C-108.21721765 116.18176832 -103.63965318 110.52494254 -99.03515625 104.8828125 C-95.54391792 100.59735882 -92.10102987 96.27858047 -88.69921875 91.921875 C-84.21721765 86.18176832 -79.63965318 80.52494254 -75.03515625 74.8828125 C-71.54391792 70.59735882 -68.10102987 66.27858047 -64.69921875 61.921875 C-60.21721765 56.18176832 -55.63965318 50.52494254 -51.03515625 44.8828125 C-47.54391279 40.59735252 -44.10129707 36.2783769 -40.69921875 31.921875 C-36.66286584 26.75837276 -32.5763689 21.63813502 -28.44921875 16.546875 C-27.67094727 15.58394531 -27.67094727 15.58394531 -26.87695312 14.6015625 C-25.88046776 13.37589816 -24.87052753 12.16100404 -23.84510803 10.95944214 C-22.17268101 8.97305848 -22.17268101 8.97305848 -20.89561462 6.83425903 C-15.56152533 -0.89876289 -8.54763206 -0.18181455 0 0 Z " fill="#D30000" transform="translate(456.19921875,162.078125)"/>
<path d="M0 0 C1.64841133 -0.00788544 1.64841133 -0.00788544 3.3301239 -0.01593018 C6.92465863 -0.02902365 10.51874286 -0.02043474 14.11328125 -0.01025391 C16.62386154 -0.01227653 19.13444125 -0.01518955 21.64501953 -0.01895142 C27.55560759 -0.02392191 33.46603399 -0.01349227 39.37659836 0.00250089 C44.76483452 0.01541714 50.15285873 0.00623426 55.54108143 -0.0084089 C61.38505829 -0.02365284 67.22892029 -0.02205551 73.07290649 -0.0132637 C75.55449465 -0.01126013 78.03609052 -0.01372645 80.51766968 -0.02070236 C83.97423009 -0.02829327 87.43020235 -0.01674844 90.88671875 0 C92.42956795 -0.00910904 92.42956795 -0.00910904 94.00358582 -0.0184021 C95.41212578 -0.00571289 95.41212578 -0.00571289 96.84912109 0.00723267 C97.66536957 0.00836374 98.48161804 0.00949482 99.32260132 0.01066017 C101.95336373 0.48288531 102.80934087 1.29475346 104.42578125 3.38818359 C105.36328125 6.13818359 105.36328125 6.13818359 105.42578125 9.38818359 C102.6197482 15.04862958 98.93284577 19.64936247 94.86328125 24.45068359 C93.60422381 25.9574567 92.34642666 27.46528373 91.08984375 28.97412109 C90.15833496 30.09125488 90.15833496 30.09125488 89.20800781 31.23095703 C86.66709534 34.30650533 84.1937565 37.43174055 81.73828125 40.57568359 C81.30322266 41.1315918 80.86816406 41.6875 80.41992188 42.26025391 C78.58098508 44.61425695 76.7476178 46.97248674 74.91894531 49.33447266 C73.89620516 50.65532381 72.87205985 51.97508827 71.84643555 53.29370117 C70.87841522 54.53834426 69.91358058 55.78547344 68.95239258 57.03540039 C65.65110825 61.2755201 65.65110825 61.2755201 63.42578125 62.38818359 C61.48129337 62.44195262 59.53485352 62.42976148 57.59008789 62.38720703 C56.36443619 62.36519226 55.13878448 62.34317749 53.87599182 62.32049561 C52.88955783 62.30132206 52.88955783 62.30132206 51.88319588 62.28176117 C47.65216214 62.21107529 43.4204412 62.20493896 39.18891239 62.18790817 C35.4786437 62.16932511 31.7714682 62.12779935 28.06225586 62.03515625 C11.22082557 60.75539033 11.22082557 60.75539033 -3.82299805 66.09863281 C-6.77780855 69.18532786 -8.64348112 72.59616931 -10.57421875 76.38818359 C-11.65168933 77.82461053 -12.75948473 79.23953143 -13.9140625 80.61474609 C-15.23352867 82.33178068 -16.54363623 84.05539854 -17.84960938 85.78271484 C-20.19313479 88.8261639 -22.26561218 91.41529334 -25.57421875 93.38818359 C-28.53393555 93.76913452 -28.53393555 93.76913452 -32.0234375 93.77636719 C-33.33159424 93.78582367 -34.63975098 93.79528015 -35.98754883 93.80502319 C-37.41227522 93.79965335 -38.83699885 93.79350036 -40.26171875 93.78662109 C-41.72615707 93.78864271 -43.19059441 93.79155488 -44.6550293 93.7953186 C-47.7216146 93.79973788 -50.78793744 93.79332395 -53.85449219 93.77929688 C-57.78218986 93.76220489 -61.70927252 93.77204824 -65.63694763 93.79001427 C-68.66016256 93.80086302 -71.68323207 93.79740083 -74.70645142 93.78963089 C-76.15451124 93.78763189 -77.60258434 93.79007766 -79.05062866 93.79706955 C-81.07541649 93.80470105 -83.1002507 93.79100382 -85.125 93.77636719 C-86.85230347 93.77278702 -86.85230347 93.77278702 -88.61450195 93.76913452 C-91.89709173 93.34662598 -93.27089414 92.73485901 -95.57421875 90.38818359 C-96.57055698 86.80136597 -97.13978247 84.52916405 -95.453125 81.12646484 C-93.01280934 77.56999649 -90.32364015 74.27116335 -87.57421875 70.95068359 C-86.39619623 69.51525593 -85.2191283 68.07904438 -84.04296875 66.64208984 C-83.45644531 65.92553223 -82.86992187 65.20897461 -82.265625 64.47070312 C-79.8305413 61.47254147 -77.44884567 58.43430224 -75.07421875 55.38818359 C-70.59582183 49.65167188 -66.02953455 43.99168649 -61.41455078 38.36450195 C-58.78092736 35.14419573 -56.18832665 31.90737905 -53.69140625 28.57958984 C-40.10633567 10.52053786 -23.01680024 -0.13806577 0 0 Z " fill="#F02D0D" transform="translate(214.57421875,255.61181640625)"/>
<path d="M0 0 C1.8469284 0.04016118 3.69394037 0.07665734 5.54101562 0.109375 C10.05024963 0.19720732 14.55545455 0.33505781 19.0625 0.5 C17.24817032 4.31178031 14.87587761 7.46580378 12.25 10.75 C11.76789063 11.3584375 11.28578125 11.966875 10.7890625 12.59375 C6.53736077 17.94371739 2.22131328 23.24143971 -2.09887695 28.53613281 C-5.59133341 32.8223059 -9.03487416 37.14225112 -12.4375 41.5 C-16.9195011 47.24010668 -21.49706557 52.89693246 -26.1015625 58.5390625 C-29.59280083 62.82451618 -33.03568888 67.14329453 -36.4375 71.5 C-40.9195011 77.24010668 -45.49706557 82.89693246 -50.1015625 88.5390625 C-53.59280083 92.82451618 -57.03568888 97.14329453 -60.4375 101.5 C-64.9195011 107.24010668 -69.49706557 112.89693246 -74.1015625 118.5390625 C-77.59280083 122.82451618 -81.03568888 127.14329453 -84.4375 131.5 C-88.9195011 137.24010668 -93.49706557 142.89693246 -98.1015625 148.5390625 C-102.04277763 153.37685738 -105.91376915 158.26444763 -109.75146484 163.18457031 C-114.01670258 168.63745749 -118.39065031 174.00020773 -122.78710938 179.34765625 C-123.57698242 180.31251953 -123.57698242 180.31251953 -124.3828125 181.296875 C-125.08688232 182.15297363 -125.08688232 182.15297363 -125.80517578 183.02636719 C-127.02605061 184.51847562 -127.02605061 184.51847562 -127.9375 186.5 C-132.52062084 186.61605098 -137.10336449 186.68720362 -141.6875 186.75 C-143.64042969 186.80027344 -143.64042969 186.80027344 -145.6328125 186.8515625 C-146.88320313 186.86445313 -148.13359375 186.87734375 -149.421875 186.890625 C-150.57397461 186.91157227 -151.72607422 186.93251953 -152.91308594 186.95410156 C-155.9375 186.5 -155.9375 186.5 -158.30639648 184.71142578 C-160.27801946 182.03832881 -160.61551034 179.91812868 -160.43603516 176.61425781 C-159.48470055 172.57970457 -156.84127487 169.89443055 -154.125 166.875 C-152.91939804 165.46715108 -151.71499002 164.05827895 -150.51171875 162.6484375 C-149.90634277 161.95073242 -149.3009668 161.25302734 -148.67724609 160.53417969 C-146.16558572 157.59744741 -143.79966582 154.5572308 -141.4375 151.5 C-136.95874823 145.75742174 -132.377868 140.10298614 -127.7734375 134.4609375 C-124.28219917 130.17548382 -120.83931112 125.85670547 -117.4375 121.5 C-112.9554989 115.75989332 -108.37793443 110.10306754 -103.7734375 104.4609375 C-100.28219917 100.17548382 -96.83931112 95.85670547 -93.4375 91.5 C-88.9554989 85.75989332 -84.37793443 80.10306754 -79.7734375 74.4609375 C-76.28219917 70.17548382 -72.83931112 65.85670547 -69.4375 61.5 C-64.9554989 55.75989332 -60.37793443 50.10306754 -55.7734375 44.4609375 C-52.28219404 40.17547752 -48.83957832 35.8565019 -45.4375 31.5 C-41.40114709 26.33649776 -37.31465015 21.21626002 -33.1875 16.125 C-32.40922852 15.16207031 -32.40922852 15.16207031 -31.61523438 14.1796875 C-30.58770819 12.91584335 -29.54190391 11.66664986 -28.47875977 10.43261719 C-26.87186195 8.52620042 -26.87186195 8.52620042 -25.69116211 6.26269531 C-20.03596943 -2.66790755 -9.31418034 -0.35100991 0 0 Z " fill="#EF2D0D" transform="translate(460.9375,162.5)"/>
</svg>
